<svg width="50" height="50" viewBox="0 0 50 50" fill="none" xmlns="http://www.w3.org/2000/svg">
<circle cx="25" cy="25" r="25" fill="#FFEB23"/>
<path d="M26.0393 16.7246C25.4398 16.3993 24.6164 16.3944 24.0127 16.7186C21.4341 18.1034 19.0974 19.69 17.0514 21.448C16.7786 21.6824 16.5981 22.0105 16.6011 22.3856C16.6042 22.7593 16.7889 23.0837 17.0608 23.3149C19.0903 25.0405 21.4296 26.629 23.9614 28.003C24.5609 28.3284 25.3843 28.3333 25.988 28.0091C28.5666 26.6243 30.9033 25.0376 32.9493 23.2797C33.2221 23.0452 33.4026 22.7171 33.3995 22.3421C33.3965 21.9684 33.2118 21.6439 32.9399 21.4127C30.9104 19.6872 28.5711 18.0987 26.0393 16.7246Z" fill="#506270"/>
<path d="M33.9584 27.2786C34.3097 27.0505 34.4167 26.5694 34.1974 26.204C33.978 25.8387 33.5154 25.7274 33.164 25.9555L27.0568 29.9203C26.5127 30.2735 25.7736 30.4704 25.0002 30.4705C24.2267 30.4705 23.4875 30.2737 22.9434 29.9205L16.903 26.0006C16.5517 25.7725 16.089 25.8839 15.8697 26.2493C15.6504 26.6147 15.7575 27.0958 16.1089 27.3238L22.1492 31.2438C22.9781 31.7817 24.0063 32.0303 25.0003 32.0302C25.9942 32.0302 27.0224 31.7814 27.8511 31.2434L33.9584 27.2786Z" fill="#506270"/>
<path d="M33.9584 31.1829C34.3098 30.9547 34.4167 30.4736 34.1973 30.1083C33.9779 29.7429 33.5152 29.6317 33.1639 29.8599L27.875 33.2943C27.1022 33.7962 26.0683 34.0675 25.0001 34.0676C23.9319 34.0676 22.898 33.7965 22.125 33.2947L16.9031 29.905C16.5518 29.6769 16.0891 29.7882 15.8698 30.1535C15.6504 30.5189 15.7574 31 16.1088 31.2281L21.3307 34.6178C22.3884 35.3044 23.7115 35.6274 25.0002 35.6273C26.2889 35.6273 27.6119 35.3041 28.6695 34.6173L33.9584 31.1829Z" fill="#506270"/>
</svg>
