<svg width="50" height="50" viewBox="0 0 50 50" fill="none" xmlns="http://www.w3.org/2000/svg">
<circle cx="25" cy="25" r="25" fill="#FFEB23"/>
<path d="M25 15.8994C22.9289 15.8994 21.25 17.6452 21.25 19.7988C21.25 21.9524 22.9289 23.6983 25 23.6983C27.0711 23.6983 28.75 21.9524 28.75 19.7988C28.75 17.6452 27.0711 15.8994 25 15.8994Z" fill="#506270"/>
<path d="M21 25.778C18.9289 25.778 17.25 27.5238 17.25 29.6774V30.913C17.25 31.6962 17.7959 32.3641 18.5393 32.4903C22.8181 33.2167 27.1819 33.2167 31.4607 32.4903C32.2041 32.3641 32.75 31.6963 32.75 30.913V29.6774C32.75 27.5238 31.0711 25.778 29 25.778H28.6591C28.4746 25.778 28.2913 25.8083 28.1159 25.8678L27.2504 26.1617C25.7881 26.6582 24.2119 26.6582 22.7496 26.1617L21.8841 25.8678C21.7087 25.8083 21.5254 25.778 21.3409 25.778H21Z" fill="#506270"/>
</svg>
