<svg width="50" height="50" viewBox="0 0 50 50" fill="none" xmlns="http://www.w3.org/2000/svg">
<circle cx="25" cy="25" r="25" fill="#FFEB23"/>
<path d="M18.001 22.8605C19.9174 27.0344 23.3274 30.3529 27.567 32.1519L28.2466 32.4547C29.8014 33.1475 31.6291 32.6212 32.5775 31.2077L33.4655 29.884C33.7543 29.4536 33.6664 28.8739 33.263 28.5485L30.2512 26.1187C29.8088 25.7618 29.1583 25.845 28.8199 26.3016L27.8881 27.5589C25.4973 26.3795 23.5563 24.4385 22.3769 22.0477L23.6342 21.116C24.0908 20.7775 24.174 20.127 23.8171 19.6846L21.3872 16.6727C21.0619 16.2694 20.4824 16.1814 20.052 16.47L18.7191 17.3637C17.2968 18.3174 16.7734 20.1603 17.4822 21.7192L18.0002 22.8588L18.001 22.8605Z" fill="#2A2A2A"/>
</svg>
