<svg width="50" height="50" viewBox="0 0 50 50" fill="none" xmlns="http://www.w3.org/2000/svg">
<circle cx="25" cy="25" r="25" fill="#FFEB23"/>
<path d="M32 16.1196H18C16.9 16.1196 16 17.0555 16 18.1993V32.7572C16 33.901 16.9 34.8369 18 34.8369H32C33.1 34.8369 34 33.901 34 32.7572V18.1993C34 17.0555 33.1 16.1196 32 16.1196ZM22 30.6775H20V24.3986C20 23.8463 20.4477 23.3986 21 23.3986C21.5523 23.3986 22 23.8463 22 24.3986V30.6775ZM26 30.6775H24V21.279C24 20.7267 24.4477 20.279 25 20.279C25.5523 20.279 26 20.7267 26 21.279V30.6775ZM30 30.6775H28V27.5181C28 26.9658 28.4477 26.5181 29 26.5181C29.5523 26.5181 30 26.9658 30 27.5181V30.6775Z" fill="#506270"/>
</svg>
