<svg width="50" height="50" viewBox="0 0 50 50" fill="none" xmlns="http://www.w3.org/2000/svg">
<circle cx="25" cy="25" r="25" fill="#FFEB23"/>
<path d="M19.5462 21.1627C19.3309 21.1059 19.1521 20.9564 19.0579 20.7547C18.9637 20.5531 18.964 20.32 19.0587 20.1185L20.7194 16.5841C20.8432 16.3207 21.1081 16.1527 21.3992 16.1531C21.6902 16.1534 21.9547 16.3221 22.0778 16.5858L22.8104 18.155C22.8366 18.1447 22.8637 18.1358 22.8915 18.1284C27.2389 16.9635 31.7074 19.5434 32.8723 23.8907C34.0371 28.2381 31.4572 32.7066 27.1099 33.8715C22.7625 35.0364 18.294 32.4565 17.1291 28.1091C16.7587 26.7267 16.767 25.3298 17.0915 24.0311C17.1919 23.6292 17.599 23.3848 18.0009 23.4852C18.4027 23.5856 18.6471 23.9927 18.5467 24.3946C18.2825 25.4526 18.2752 26.5907 18.578 27.7209C19.5285 31.268 23.1745 33.3731 26.7216 32.4226C30.2688 31.4722 32.3738 27.8261 31.4234 24.279C30.4885 20.7898 26.9454 18.696 23.4538 19.5331L24.193 21.1164C24.3161 21.3801 24.2756 21.6912 24.089 21.9145C23.9024 22.1378 23.6035 22.2331 23.3221 22.1588L19.5462 21.1627Z" fill="#2A2A2A"/>
</svg>
