<svg width="51" height="51" viewBox="0 0 51 51" fill="none" xmlns="http://www.w3.org/2000/svg">
  <g clip-path="url(#clip0_112_153)">
    <path d="M43.5285 7.46594C33.5687 -2.49092 17.4229 -2.48853 7.46606 7.47142C-2.49079 17.4314 -2.4884 33.577 7.47154 43.5339C17.4315 53.4907 33.5772 53.4884 43.534 43.5284C48.3159 38.7451 51.0015 32.258 51 25.4944C50.9986 18.732 48.3111 12.247 43.5285 7.46594ZM38.6189 35.5211C38.6178 35.5222 38.6167 35.5234 38.6155 35.5245V35.516L37.3235 36.7995C35.6525 38.4916 33.219 39.1877 30.9059 38.6355C28.5756 38.0117 26.3603 37.0188 24.344 35.6945C22.4707 34.4973 20.7347 33.0978 19.1675 31.521C17.7254 30.0895 16.4299 28.5177 15.2999 26.829C14.064 25.0119 13.0857 23.0325 12.3929 20.947C11.5988 18.497 12.2569 15.8086 14.093 14.0025L15.6059 12.4895C16.0266 12.067 16.7101 12.0655 17.1325 12.4861C17.1336 12.4872 17.1348 12.4883 17.1359 12.4895L21.9129 17.2665C22.3354 17.6872 22.3369 18.3707 21.9163 18.7931C21.9152 18.7942 21.9141 18.7953 21.9129 18.7965L19.1079 21.6015C18.3031 22.3976 18.2019 23.6626 18.8699 24.5765C19.8845 25.9689 21.0072 27.279 22.2275 28.4951C23.588 29.8615 25.0671 31.1045 26.6474 32.2096C27.5606 32.8465 28.7985 32.7391 29.5884 31.9546L32.2999 29.2006C32.7205 28.7781 33.404 28.7766 33.8265 29.1972C33.8276 29.1983 33.8287 29.1994 33.8299 29.2006L38.6154 33.9946C39.038 34.4151 39.0395 35.0986 38.6189 35.5211Z" fill="#FFEB23"/>
  </g>
  <defs>
    <clipPath id="clip0_112_153">
      <rect width="51" height="51" fill="white"/>
    </clipPath>
  </defs>
</svg>
