<svg width="119" height="49" viewBox="0 0 119 49" fill="none" xmlns="http://www.w3.org/2000/svg">
<path d="M57.9925 3.15415V4.53782H53.2019V7.0702H57.4051V8.3886H53.2019V12.4482H51.5571V3.15415H57.9925ZM65.1298 10.3466C64.9601 11.0776 64.5946 11.652 64.0464 12.0566C63.4981 12.4743 62.8324 12.6702 62.0753 12.6702C61.0571 12.6702 60.2478 12.3438 59.6473 11.6911C59.0469 11.0385 58.7597 10.19 58.7597 9.15876C58.7597 8.11448 59.0599 7.2399 59.6735 6.54806C60.287 5.86928 61.0702 5.51683 62.0231 5.51683C63.0021 5.51683 63.7853 5.85623 64.3597 6.53501C64.934 7.21379 65.2212 8.12753 65.2212 9.2893V9.44594H60.2478C60.2609 10.1247 60.4306 10.6599 60.7569 11.0254C61.0702 11.3909 61.5271 11.5737 62.1014 11.5737C62.5061 11.5737 62.8324 11.4823 63.0935 11.2865C63.3545 11.0907 63.5503 10.7774 63.707 10.3466H65.1298ZM63.7331 8.45387C63.6809 7.89257 63.5112 7.44875 63.1979 7.12241C62.8846 6.79608 62.493 6.62638 62.01 6.62638C61.514 6.62638 61.1224 6.78302 60.8222 7.09631C60.5219 7.40959 60.3392 7.86646 60.2739 8.45387H63.7331ZM70.1641 5.5821V7.00493C69.903 6.97883 69.7203 6.96577 69.6419 6.96577C68.3366 6.96577 67.697 7.81425 67.697 9.4851V12.4482H66.2219V5.71264H67.6187V7.05715C68.0886 6.06508 68.8457 5.556 69.8769 5.556L70.1641 5.5821ZM72.5939 5.71264V6.7047C73.1291 5.92149 73.8731 5.52989 74.826 5.52989C75.5831 5.52989 76.1575 5.73874 76.536 6.15646C76.9146 6.57417 77.1104 7.17463 77.1104 7.95784V12.4482H75.6223V8.53219C75.6223 8.27112 75.6092 8.04921 75.5831 7.86646C75.557 7.68372 75.4917 7.50097 75.4134 7.31822C75.3351 7.13547 75.2046 7.00493 75.0218 6.91356C74.8391 6.82218 74.6041 6.76997 74.3169 6.76997C73.2204 6.76997 72.6722 7.46181 72.6722 8.81937V12.4482H71.1841V5.71264H72.5939ZM78.6013 7.78814C78.758 6.27394 79.737 5.50378 81.5514 5.50378C82.3868 5.50378 83.0656 5.67348 83.5617 5.99981C84.0577 6.3392 84.3188 6.84829 84.3188 7.54013V10.9601C84.3188 11.1559 84.3318 11.2865 84.384 11.3517C84.4362 11.4301 84.5276 11.4562 84.6712 11.4562C84.7756 11.4562 84.8801 11.4562 85.0106 11.4301V12.4743C84.619 12.5788 84.3057 12.6179 84.0446 12.6179C83.405 12.6179 83.0395 12.3569 82.9481 11.8086C82.3738 12.3569 81.5906 12.6179 80.5855 12.6179C79.8806 12.6179 79.3323 12.4482 78.9277 12.0827C78.51 11.7172 78.3142 11.2343 78.3142 10.6077C78.3142 10.4249 78.3272 10.2422 78.3794 10.0725C78.4186 9.91586 78.4708 9.77227 78.523 9.64174C78.5752 9.52426 78.6666 9.40678 78.7971 9.30235C78.9277 9.19792 79.0321 9.1196 79.1104 9.04128C79.1887 8.97601 79.3323 8.91074 79.5151 8.84548C79.6978 8.79326 79.8414 8.74105 79.9328 8.71494C80.0242 8.68883 80.1808 8.64967 80.4158 8.61051C80.6377 8.58441 80.7813 8.5583 80.8596 8.54525C80.9379 8.53219 81.0946 8.50609 81.3295 8.47998C81.8517 8.41471 82.2172 8.3625 82.413 8.31028C82.5957 8.25807 82.7262 8.1928 82.8046 8.08837C82.8568 8.02311 82.8959 7.86646 82.8959 7.60539C82.8959 6.92661 82.426 6.58722 81.5123 6.58722C81.0162 6.58722 80.6638 6.6786 80.4419 6.86134C80.2069 7.04409 80.0633 7.35738 80.0111 7.78814H78.6013ZM82.8829 9.06739C82.7654 9.13265 82.6349 9.18487 82.4913 9.23708C82.3346 9.2893 82.2172 9.3154 82.1258 9.32846C82.0344 9.34151 81.8908 9.35456 81.695 9.38067C81.4992 9.40678 81.3687 9.43288 81.3165 9.43288C81.1337 9.45899 80.9901 9.4851 80.8857 9.5112C80.7813 9.53731 80.6507 9.56342 80.4941 9.61563C80.3375 9.66785 80.22 9.73311 80.1416 9.81144C80.0633 9.88976 79.985 9.98113 79.9328 10.1117C79.8675 10.2422 79.8414 10.3858 79.8414 10.5555C79.8414 10.8818 79.9458 11.1298 80.1547 11.2995C80.3636 11.4823 80.6638 11.5606 81.0554 11.5606C81.7081 11.5606 82.2172 11.3909 82.5827 11.0254C82.7785 10.8296 82.8829 10.438 82.8829 9.86365V9.06739ZM87.3428 5.71264V6.7047C87.878 5.92149 88.622 5.52989 89.5749 5.52989C90.332 5.52989 90.9064 5.73874 91.285 6.15646C91.6635 6.57417 91.8593 7.17463 91.8593 7.95784V12.4482H90.3712V8.53219C90.3712 8.27112 90.3582 8.04921 90.332 7.86646C90.3059 7.68372 90.2407 7.50097 90.1624 7.31822C90.084 7.13547 89.9535 7.00493 89.7707 6.91356C89.588 6.82218 89.353 6.76997 89.0659 6.76997C87.9694 6.76997 87.4211 7.46181 87.4211 8.81937V12.4482H85.933V5.71264H87.3428ZM99.7987 3.15415V12.4482H98.402V11.5214C97.9712 12.2655 97.2533 12.631 96.2481 12.631C95.2952 12.631 94.5381 12.3177 93.9768 11.665C93.4155 11.0254 93.1414 10.1639 93.1414 9.06739C93.1414 7.997 93.4155 7.13547 93.9638 6.49585C94.512 5.85623 95.2561 5.52989 96.1959 5.52989C97.1358 5.52989 97.8537 5.88233 98.3367 6.58722V3.15415H99.7987ZM96.47 6.73081C95.8957 6.73081 95.4519 6.93967 95.1255 7.35738C94.7992 7.77509 94.6426 8.33639 94.6426 9.04128C94.6426 9.78533 94.7992 10.3727 95.1386 10.7904C95.478 11.2212 95.9349 11.4301 96.5223 11.4301C97.0966 11.4301 97.5535 11.2212 97.8798 10.8035C98.2062 10.3858 98.3759 9.81144 98.3759 9.06739C98.3759 8.33639 98.2062 7.76204 97.8668 7.34432C97.5274 6.93967 97.0705 6.73081 96.47 6.73081ZM107.426 10.3466C107.257 11.0776 106.891 11.652 106.343 12.0566C105.795 12.4743 105.129 12.6702 104.372 12.6702C103.354 12.6702 102.544 12.3438 101.944 11.6911C101.343 11.0385 101.056 10.19 101.056 9.15876C101.056 8.11448 101.356 7.2399 101.97 6.54806C102.583 5.86928 103.367 5.51683 104.319 5.51683C105.298 5.51683 106.082 5.85623 106.656 6.53501C107.23 7.21379 107.518 8.12753 107.518 9.2893V9.44594H102.544C102.557 10.1247 102.727 10.6599 103.053 11.0254C103.367 11.3909 103.823 11.5737 104.398 11.5737C104.802 11.5737 105.129 11.4823 105.39 11.2865C105.651 11.0907 105.847 10.7774 106.003 10.3466H107.426ZM106.029 8.45387C105.977 7.89257 105.808 7.44875 105.494 7.12241C105.181 6.79608 104.789 6.62638 104.306 6.62638C103.81 6.62638 103.419 6.78302 103.119 7.09631C102.818 7.40959 102.636 7.86646 102.57 8.45387H106.029ZM113.988 7.67066H112.565C112.474 6.96577 111.991 6.60027 111.103 6.60027C110.711 6.60027 110.424 6.6786 110.215 6.80913C110.006 6.95272 109.902 7.14852 109.902 7.38348C109.902 7.46181 109.902 7.54013 109.915 7.59234C109.928 7.65761 109.954 7.70982 109.993 7.76204C110.033 7.81425 110.072 7.85341 110.098 7.87952C110.124 7.91868 110.189 7.95784 110.267 7.98395C110.346 8.02311 110.398 8.04921 110.45 8.07532C110.502 8.10143 110.581 8.12753 110.698 8.15364C110.803 8.17975 110.894 8.20586 110.959 8.21891C111.025 8.24502 111.129 8.27112 111.286 8.29723C111.429 8.32334 111.547 8.34944 111.625 8.3625C111.964 8.44082 112.199 8.50609 112.356 8.54525C112.513 8.58441 112.735 8.66273 113.022 8.78021C113.309 8.89769 113.531 9.01517 113.674 9.14571C113.805 9.27624 113.936 9.44594 114.053 9.66785C114.17 9.88976 114.236 10.1378 114.236 10.4249C114.236 11.1037 113.962 11.652 113.439 12.0436C112.904 12.4482 112.186 12.644 111.299 12.644C110.333 12.644 109.602 12.4482 109.093 12.0436C108.571 11.652 108.296 11.0646 108.27 10.2944H109.693C109.771 11.1429 110.307 11.5606 111.325 11.5606C111.756 11.5606 112.108 11.4823 112.369 11.2995C112.63 11.1168 112.774 10.8818 112.774 10.5816C112.774 10.438 112.735 10.3075 112.669 10.203C112.604 10.0986 112.5 10.0203 112.356 9.94197C112.199 9.86365 112.056 9.81144 111.925 9.77227C111.795 9.73311 111.612 9.6809 111.39 9.62869L111.312 9.61563C111.286 9.61563 111.273 9.60258 111.247 9.60258C111.22 9.60258 111.194 9.58953 111.168 9.57647C110.202 9.34151 109.602 9.15876 109.341 9.02823C108.714 8.74105 108.414 8.24502 108.414 7.55318C108.414 6.92661 108.649 6.43058 109.145 6.06508C109.628 5.69958 110.307 5.51683 111.168 5.51683C111.991 5.51683 112.669 5.69958 113.191 6.05203C113.714 6.41753 113.988 6.95272 113.988 7.67066ZM61.2167 17.1542V26.4482H59.6634V19.2819L57.0788 26.4482H55.7473L53.0975 19.2819V26.4482H51.5571V17.1542H53.8415L56.4391 24.4249L58.9454 17.1542H61.2167ZM68.9923 24.3466C68.8226 25.0776 68.4571 25.652 67.9089 26.0566C67.3606 26.4743 66.6949 26.6702 65.9378 26.6702C64.9196 26.6702 64.1103 26.3438 63.5099 25.6911C62.9094 25.0385 62.6222 24.19 62.6222 23.1588C62.6222 22.1145 62.9225 21.2399 63.536 20.5481C64.1495 19.8693 64.9327 19.5168 65.8856 19.5168C66.8646 19.5168 67.6478 19.8562 68.2222 20.535C68.7965 21.2138 69.0837 22.1275 69.0837 23.2893V23.4459H64.1103C64.1234 24.1247 64.2931 24.6599 64.6194 25.0254C64.9327 25.3909 65.3896 25.5737 65.9639 25.5737C66.3686 25.5737 66.6949 25.4823 66.956 25.2865C67.2171 25.0907 67.4129 24.7774 67.5695 24.3466H68.9923ZM67.5956 22.4539C67.5434 21.8926 67.3737 21.4488 67.0604 21.1224C66.7471 20.7961 66.3555 20.6264 65.8725 20.6264C65.3765 20.6264 64.9849 20.783 64.6847 21.0963C64.3844 21.4096 64.2017 21.8665 64.1364 22.4539H67.5956ZM76.5981 17.1542V26.4482H75.2014V25.5214C74.7706 26.2655 74.0527 26.631 73.0476 26.631C72.0947 26.631 71.3376 26.3177 70.7763 25.665C70.215 25.0254 69.9408 24.1639 69.9408 23.0674C69.9408 21.997 70.215 21.1355 70.7632 20.4958C71.3115 19.8562 72.0555 19.5299 72.9954 19.5299C73.9352 19.5299 74.6532 19.8823 75.1361 20.5872V17.1542H76.5981ZM73.2695 20.7308C72.6951 20.7308 72.2513 20.9397 71.925 21.3574C71.5986 21.7751 71.442 22.3364 71.442 23.0413C71.442 23.7853 71.5986 24.3727 71.938 24.7904C72.2774 25.2212 72.7343 25.4301 73.3217 25.4301C73.8961 25.4301 74.3529 25.2212 74.6793 24.8035C75.0056 24.3858 75.1753 23.8114 75.1753 23.0674C75.1753 22.3364 75.0056 21.762 74.6662 21.3443C74.3268 20.9397 73.87 20.7308 73.2695 20.7308ZM79.7222 17.115V18.577H78.2341V17.115H79.7222ZM79.7222 19.7126V26.4482H78.2341V19.7126H79.7222ZM81.2783 21.7881C81.435 20.2739 82.414 19.5038 84.2284 19.5038C85.0638 19.5038 85.7426 19.6735 86.2387 19.9998C86.7347 20.3392 86.9958 20.8483 86.9958 21.5401V24.9601C86.9958 25.1559 87.0088 25.2865 87.061 25.3517C87.1132 25.4301 87.2046 25.4562 87.3482 25.4562C87.4526 25.4562 87.5571 25.4562 87.6876 25.4301V26.4743C87.296 26.5788 86.9827 26.6179 86.7216 26.6179C86.082 26.6179 85.7165 26.3569 85.6251 25.8086C85.0508 26.3569 84.2676 26.6179 83.2625 26.6179C82.5576 26.6179 82.0093 26.4482 81.6047 26.0827C81.1869 25.7172 80.9911 25.2343 80.9911 24.6077C80.9911 24.4249 81.0042 24.2422 81.0564 24.0725C81.0956 23.9159 81.1478 23.7723 81.2 23.6417C81.2522 23.5243 81.3436 23.4068 81.4741 23.3023C81.6047 23.1979 81.7091 23.1196 81.7874 23.0413C81.8657 22.976 82.0093 22.9107 82.1921 22.8455C82.3748 22.7933 82.5184 22.741 82.6098 22.7149C82.7012 22.6888 82.8578 22.6497 83.0928 22.6105C83.3147 22.5844 83.4583 22.5583 83.5366 22.5452C83.6149 22.5322 83.7715 22.5061 84.0065 22.48C84.5286 22.4147 84.8941 22.3625 85.0899 22.3103C85.2727 22.2581 85.4032 22.1928 85.4815 22.0884C85.5338 22.0231 85.5729 21.8665 85.5729 21.6054C85.5729 20.9266 85.103 20.5872 84.1893 20.5872C83.6932 20.5872 83.3408 20.6786 83.1189 20.8613C82.8839 21.0441 82.7403 21.3574 82.6881 21.7881H81.2783ZM85.5599 23.0674C85.4424 23.1327 85.3119 23.1849 85.1683 23.2371C85.0116 23.2893 84.8941 23.3154 84.8028 23.3285C84.7114 23.3415 84.5678 23.3546 84.372 23.3807C84.1762 23.4068 84.0457 23.4329 83.9934 23.4329C83.8107 23.459 83.6671 23.4851 83.5627 23.5112C83.4583 23.5373 83.3277 23.5634 83.1711 23.6156C83.0144 23.6678 82.897 23.7331 82.8186 23.8114C82.7403 23.8898 82.662 23.9811 82.6098 24.1117C82.5445 24.2422 82.5184 24.3858 82.5184 24.5555C82.5184 24.8818 82.6228 25.1298 82.8317 25.2995C83.0405 25.4823 83.3408 25.5606 83.7324 25.5606C84.3851 25.5606 84.8941 25.3909 85.2596 25.0254C85.4554 24.8296 85.5599 24.438 85.5599 23.8636V23.0674Z" fill="#222222"/>
<g clip-path="url(#clip0_182_314)">
<path d="M13.2444 27.242C20.0715 27.242 25.606 21.6489 25.606 14.7494C25.606 7.84997 20.0715 2.25684 13.2444 2.25684C6.41728 2.25684 0.882812 7.84997 0.882812 14.7494C0.882812 21.6489 6.41728 27.242 13.2444 27.242Z" stroke="#88D100" stroke-width="1.63169"/>
<path d="M26.1936 27.242C33.0207 27.242 38.5552 21.6489 38.5552 14.7494C38.5552 7.84997 33.0207 2.25684 26.1936 2.25684C19.3665 2.25684 13.832 7.84997 13.832 14.7494C13.832 21.6489 19.3665 27.242 26.1936 27.242Z" stroke="#88D100" stroke-width="1.63169"/>
<path d="M44.0762 2.08854C44.1703 2.08854 44.2626 2.08656 44.3528 2.08259C44.447 2.07466 44.5294 2.05681 44.6001 2.02905C44.6707 2.00129 44.7276 1.95766 44.7708 1.89817C44.8139 1.83472 44.8355 1.74945 44.8355 1.64237C44.8355 1.55116 44.8179 1.47779 44.7825 1.42226C44.7512 1.36674 44.706 1.32312 44.6471 1.29139C44.5922 1.2557 44.5294 1.2319 44.4588 1.22C44.3881 1.20811 44.3136 1.20216 44.2351 1.20216H43.6641V2.08854H44.0762ZM43.6641 3.49247H43.3521V0.934458H44.3234C44.6099 0.934458 44.8179 0.995933 44.9474 1.11887C45.0808 1.23785 45.1475 1.41235 45.1475 1.64237C45.1475 1.75342 45.1298 1.85058 45.0945 1.93387C45.0631 2.01715 45.018 2.08854 44.9591 2.14803C44.9003 2.20355 44.8316 2.24916 44.7531 2.28485C44.6785 2.31658 44.5981 2.34038 44.5118 2.35624L45.2652 3.49247H44.9003L44.188 2.35624H43.6641V3.49247ZM44.1468 0.315778C43.88 0.315778 43.6327 0.365352 43.4051 0.464499C43.1814 0.563647 42.9872 0.69849 42.8223 0.86902C42.6575 1.03956 42.528 1.23984 42.4338 1.46986C42.3436 1.69988 42.2984 1.94775 42.2984 2.21346C42.2984 2.47918 42.3436 2.72705 42.4338 2.95707C42.528 3.18709 42.6575 3.38737 42.8223 3.5579C42.9872 3.72844 43.1814 3.86328 43.4051 3.96243C43.6327 4.06158 43.88 4.11115 44.1468 4.11115C44.4097 4.11115 44.653 4.06158 44.8767 3.96243C45.1043 3.86328 45.3005 3.72844 45.4654 3.5579C45.6302 3.38737 45.7597 3.18709 45.8539 2.95707C45.9481 2.72705 45.9951 2.47918 45.9951 2.21346C45.9951 1.94775 45.9481 1.69988 45.8539 1.46986C45.7597 1.23984 45.6302 1.03956 45.4654 0.86902C45.3005 0.69849 45.1043 0.563647 44.8767 0.464499C44.653 0.365352 44.4097 0.315778 44.1468 0.315778ZM44.1468 0.000488281C44.4568 0.000488281 44.7453 0.0579939 45.0121 0.173005C45.2789 0.28405 45.5105 0.440704 45.7067 0.642963C45.9029 0.841263 46.056 1.07525 46.1659 1.34493C46.2796 1.61461 46.3366 1.90412 46.3366 2.21346C46.3366 2.52677 46.2796 2.81827 46.1659 3.08794C46.056 3.35366 45.9029 3.58567 45.7067 3.78396C45.5105 3.98226 45.2789 4.13891 45.0121 4.25392C44.7453 4.36497 44.4568 4.42049 44.1468 4.42049C43.8368 4.42049 43.5483 4.36497 43.2815 4.25392C43.0147 4.13891 42.7831 3.98226 42.5869 3.78396C42.3907 3.58567 42.2356 3.35366 42.1219 3.08794C42.012 2.81827 41.957 2.52677 41.957 2.21346C41.957 1.90412 42.012 1.61461 42.1219 1.34493C42.2356 1.07525 42.3907 0.841263 42.5869 0.642963C42.7831 0.440704 43.0147 0.28405 43.2815 0.173005C43.5483 0.0579939 43.8368 0.000488281 44.1468 0.000488281Z" fill="#484848"/>
</g>
<path d="M2.53669 36.1338H3.98726L5.47209 42.3244L7.13968 36.1338H8.59025L10.2007 42.3244L11.7312 36.1338H13.1818L10.9317 44.2661H9.48115L7.83641 38.0184L6.1574 44.2661H4.68399L2.53669 36.1338ZM18.9927 42.4272C18.8443 43.0668 18.5245 43.5694 18.0447 43.9235C17.565 44.289 16.9825 44.4603 16.32 44.4603C15.4291 44.4603 14.721 44.1747 14.1956 43.6036C13.6702 43.0326 13.4189 42.2901 13.4189 41.3878C13.4189 40.4741 13.6816 39.7088 14.2184 39.1035C14.7553 38.5095 15.4406 38.2011 16.2744 38.2011C17.131 38.2011 17.8163 38.4981 18.3189 39.092C18.8214 39.686 19.0727 40.4855 19.0727 41.502V41.6391H14.721C14.7324 42.233 14.8809 42.7013 15.1664 43.0211C15.4406 43.3409 15.8403 43.5009 16.3429 43.5009C16.697 43.5009 16.9825 43.4209 17.2109 43.2496C17.4394 43.0782 17.6107 42.8041 17.7478 42.4272H18.9927ZM17.7706 40.771C17.7249 40.2799 17.5764 39.8916 17.3023 39.606C17.0282 39.3205 16.6855 39.172 16.2629 39.172C15.8289 39.172 15.4863 39.309 15.2236 39.5832C14.9609 39.8573 14.8009 40.2571 14.7438 40.771H17.7706ZM21.3646 36.1338V39.1377C21.7987 38.5324 22.4383 38.224 23.2949 38.224C24.0716 38.224 24.6998 38.5095 25.1795 39.0578C25.6593 39.6174 25.8991 40.3599 25.8991 41.2736C25.8991 42.233 25.6478 42.9983 25.1681 43.5694C24.677 44.1405 24.0259 44.426 23.2264 44.426C22.3355 44.426 21.6845 44.1062 21.2961 43.4666V44.2661H20.074V36.1338H21.3646ZM22.9637 39.2634C22.4497 39.2634 22.05 39.4461 21.753 39.8116C21.456 40.1771 21.319 40.6911 21.319 41.3307C21.319 41.9703 21.456 42.4615 21.753 42.827C22.05 43.1925 22.4497 43.3752 22.9637 43.3752C23.4434 43.3752 23.8432 43.1925 24.1401 42.8155C24.4371 42.4386 24.5856 41.9361 24.5856 41.2964C24.5856 40.6797 24.4371 40.1771 24.1401 39.8116C23.8432 39.4461 23.4548 39.2634 22.9637 39.2634ZM31.7166 40.0857H30.4716C30.3916 39.469 29.969 39.1491 29.1923 39.1491C28.8497 39.1491 28.5984 39.2177 28.4157 39.3319C28.2329 39.4575 28.1415 39.6289 28.1415 39.8345C28.1415 39.903 28.1415 39.9715 28.153 40.0172C28.1644 40.0743 28.1872 40.12 28.2215 40.1657C28.2557 40.2114 28.29 40.2456 28.3129 40.2685C28.3357 40.3027 28.3928 40.337 28.4613 40.3599C28.5299 40.3941 28.5756 40.417 28.6212 40.4398C28.6669 40.4627 28.7355 40.4855 28.8383 40.5083C28.9296 40.5312 29.0096 40.554 29.0667 40.5654C29.1238 40.5883 29.2152 40.6111 29.3522 40.634C29.4779 40.6568 29.5807 40.6797 29.6492 40.6911C29.9462 40.7596 30.1518 40.8167 30.2888 40.851C30.4259 40.8853 30.6201 40.9538 30.8713 41.0566C31.1226 41.1594 31.3168 41.2622 31.4424 41.3764C31.5567 41.4906 31.6709 41.6391 31.7737 41.8333C31.8765 42.0274 31.9336 42.2445 31.9336 42.4957C31.9336 43.0897 31.6937 43.5694 31.2368 43.912C30.7685 44.2661 30.1403 44.4374 29.3637 44.4374C28.5185 44.4374 27.8788 44.2661 27.4334 43.912C26.9765 43.5694 26.7366 43.0554 26.7138 42.3815H27.9588C28.0273 43.1239 28.4956 43.4894 29.3865 43.4894C29.7634 43.4894 30.0718 43.4209 30.3003 43.261C30.5287 43.1011 30.6543 42.8955 30.6543 42.6328C30.6543 42.5072 30.6201 42.3929 30.563 42.3016C30.5058 42.2102 30.4145 42.1417 30.2888 42.0731C30.1518 42.0046 30.0261 41.9589 29.9119 41.9246C29.7977 41.8904 29.6378 41.8447 29.4436 41.799L29.3751 41.7876C29.3522 41.7876 29.3408 41.7762 29.318 41.7762C29.2951 41.7762 29.2723 41.7647 29.2494 41.7533C28.4042 41.5477 27.8788 41.3878 27.6504 41.2736C27.1021 41.0223 26.8394 40.5883 26.8394 39.9829C26.8394 39.4347 27.045 39.0007 27.4791 38.6808C27.9017 38.361 28.4956 38.2011 29.2494 38.2011C29.969 38.2011 30.563 38.361 31.0198 38.6694C31.4767 38.9892 31.7166 39.4575 31.7166 40.0857ZM34.3042 36.0995V37.3788H33.0021V36.0995H34.3042ZM34.3042 38.3725V44.2661H33.0021V38.3725H34.3042ZM38.6012 38.3725V39.3205H37.4134V42.4272C37.4134 42.61 37.4134 42.747 37.4248 42.8155C37.4248 42.8841 37.4476 42.964 37.4933 43.0554C37.5276 43.1468 37.5961 43.2039 37.6875 43.2267C37.7789 43.261 37.9159 43.2724 38.0872 43.2724C38.2928 43.2724 38.4642 43.2724 38.6012 43.2496V44.2775C38.3385 44.3118 38.0416 44.3232 37.7217 44.3232C37.4933 44.3232 37.2877 44.3118 37.1164 44.2775C36.9451 44.2433 36.808 44.1976 36.6938 44.1519C36.5796 44.1062 36.4768 44.0377 36.4082 43.9235C36.3283 43.8092 36.2712 43.7179 36.2255 43.6493C36.1798 43.5808 36.157 43.4437 36.1341 43.261C36.1113 43.0782 36.1113 42.9412 36.1113 42.8498V42.3472V42.2787V42.2102V42.1302V39.3205H35.129V38.3725H36.1113V36.6021H37.4134V38.3725H38.6012ZM44.8034 42.4272C44.6549 43.0668 44.3351 43.5694 43.8554 43.9235C43.3756 44.289 42.7931 44.4603 42.1307 44.4603C41.2398 44.4603 40.5316 44.1747 40.0062 43.6036C39.4808 43.0326 39.2295 42.2901 39.2295 41.3878C39.2295 40.4741 39.4922 39.7088 40.029 39.1035C40.5659 38.5095 41.2512 38.2011 42.085 38.2011C42.9416 38.2011 43.6269 38.4981 44.1295 39.092C44.632 39.686 44.8833 40.4855 44.8833 41.502V41.6391H40.5316C40.543 42.233 40.6915 42.7013 40.9771 43.0211C41.2512 43.3409 41.6509 43.5009 42.1535 43.5009C42.5076 43.5009 42.7931 43.4209 43.0216 43.2496C43.25 43.0782 43.4213 42.8041 43.5584 42.4272H44.8034ZM43.5812 40.771C43.5355 40.2799 43.3871 39.8916 43.1129 39.606C42.8388 39.3205 42.4962 39.172 42.0736 39.172C41.6395 39.172 41.2969 39.309 41.0342 39.5832C40.7715 39.8573 40.6116 40.2571 40.5545 40.771H43.5812ZM54.6374 36.1338V44.2661H53.4152V43.4552C53.0383 44.1062 52.4101 44.426 51.5306 44.426C50.6968 44.426 50.0344 44.1519 49.5432 43.5808C49.0521 43.0211 48.8122 42.2673 48.8122 41.3079C48.8122 40.3713 49.0521 39.6174 49.5318 39.0578C50.0115 38.4981 50.6626 38.2126 51.4849 38.2126C52.3073 38.2126 52.9355 38.5209 53.3581 39.1377V36.1338H54.6374ZM51.7248 39.2634C51.2222 39.2634 50.8339 39.4461 50.5484 39.8116C50.2628 40.1771 50.1257 40.6682 50.1257 41.285C50.1257 41.9361 50.2628 42.45 50.5598 42.8155C50.8567 43.1925 51.2565 43.3752 51.7705 43.3752C52.273 43.3752 52.6728 43.1925 52.9584 42.827C53.2439 42.4615 53.3924 41.9589 53.3924 41.3079C53.3924 40.6682 53.2439 40.1657 52.9469 39.8002C52.65 39.4461 52.2502 39.2634 51.7248 39.2634ZM61.3114 42.4272C61.163 43.0668 60.8432 43.5694 60.3634 43.9235C59.8837 44.289 59.3012 44.4603 58.6387 44.4603C57.7478 44.4603 57.0397 44.1747 56.5143 43.6036C55.9889 43.0326 55.7376 42.2901 55.7376 41.3878C55.7376 40.4741 56.0003 39.7088 56.5371 39.1035C57.074 38.5095 57.7593 38.2011 58.5931 38.2011C59.4497 38.2011 60.135 38.4981 60.6376 39.092C61.1401 39.686 61.3914 40.4855 61.3914 41.502V41.6391H57.0397C57.0511 42.233 57.1996 42.7013 57.4851 43.0211C57.7593 43.3409 58.159 43.5009 58.6616 43.5009C59.0157 43.5009 59.3012 43.4209 59.5296 43.2496C59.7581 43.0782 59.9294 42.8041 60.0665 42.4272H61.3114ZM60.0893 40.771C60.0436 40.2799 59.8951 39.8916 59.621 39.606C59.3469 39.3205 59.0042 39.172 58.5816 39.172C58.1476 39.172 57.805 39.309 57.5422 39.5832C57.2795 39.8573 57.1196 40.2571 57.0625 40.771H60.0893ZM61.7873 38.3725H63.2036L64.7113 42.9069L66.1619 38.3725H67.5097L65.3966 44.2775H63.9346L61.7873 38.3725ZM73.581 42.4272C73.4325 43.0668 73.1127 43.5694 72.633 43.9235C72.1532 44.289 71.5707 44.4603 70.9083 44.4603C70.0174 44.4603 69.3092 44.1747 68.7838 43.6036C68.2584 43.0326 68.0071 42.2901 68.0071 41.3878C68.0071 40.4741 68.2698 39.7088 68.8067 39.1035C69.3435 38.5095 70.0288 38.2011 70.8626 38.2011C71.7192 38.2011 72.4045 38.4981 72.9071 39.092C73.4096 39.686 73.6609 40.4855 73.6609 41.502V41.6391H69.3092C69.3206 42.233 69.4691 42.7013 69.7547 43.0211C70.0288 43.3409 70.4285 43.5009 70.9311 43.5009C71.2852 43.5009 71.5707 43.4209 71.7992 43.2496C72.0276 43.0782 72.1989 42.8041 72.336 42.4272H73.581ZM72.3588 40.771C72.3131 40.2799 72.1647 39.8916 71.8905 39.606C71.6164 39.3205 71.2738 39.172 70.8512 39.172C70.4171 39.172 70.0745 39.309 69.8118 39.5832C69.5491 39.8573 69.3892 40.2571 69.3321 40.771H72.3588ZM75.9871 36.1338V44.2661H74.6965V36.1338H75.9871ZM80.1357 38.2011C81.0266 38.2011 81.7461 38.4867 82.283 39.0463C82.8084 39.6174 83.0825 40.3713 83.0825 41.3193C83.0825 42.2787 82.8084 43.044 82.283 43.6036C81.7576 44.1747 81.038 44.4489 80.1357 44.4489C79.2105 44.4489 78.4795 44.1747 77.9427 43.6036C77.3944 43.044 77.1317 42.2787 77.1317 41.3193C77.1317 40.3713 77.3944 39.6174 77.9427 39.0463C78.4909 38.4867 79.2219 38.2011 80.1357 38.2011ZM80.1128 39.2291C79.5874 39.2291 79.1877 39.4233 78.8907 39.7888C78.5937 40.1657 78.4452 40.6797 78.4452 41.3193C78.4452 41.9818 78.5937 42.5072 78.8907 42.8727C79.1877 43.2496 79.5988 43.4323 80.1242 43.4323C80.6268 43.4323 81.0266 43.2496 81.3235 42.8727C81.6205 42.4957 81.769 41.9703 81.769 41.3079C81.769 40.6682 81.6205 40.1543 81.3235 39.7888C81.0266 39.4233 80.6268 39.2291 80.1128 39.2291ZM85.4214 38.3725V39.1606C85.8097 38.5209 86.4493 38.2011 87.3402 38.2011C88.1512 38.2011 88.8022 38.4867 89.2934 39.0578C89.7731 39.6289 90.0244 40.3941 90.0244 41.3421C90.0244 42.2787 89.7845 43.0211 89.3048 43.5808C88.8251 44.1405 88.1969 44.4146 87.4088 44.4146C86.5635 44.4146 85.9239 44.1062 85.4899 43.4894V46.4477H84.1992V38.3725H85.4214ZM87.0775 39.2519C86.5635 39.2519 86.1638 39.4347 85.8782 39.8002C85.5813 40.1657 85.4442 40.6797 85.4442 41.3193C85.4442 41.9589 85.5813 42.4615 85.8782 42.827C86.1752 43.1925 86.575 43.3752 87.1004 43.3752C87.5915 43.3752 87.9799 43.1925 88.2768 42.827C88.5624 42.4615 88.7108 41.9703 88.7108 41.3421C88.7108 40.7025 88.5624 40.1999 88.2654 39.823C87.9684 39.4461 87.5801 39.2519 87.0775 39.2519ZM92.4038 38.3725V39.2063C92.8836 38.5438 93.5003 38.2126 94.2542 38.2126C94.6425 38.2126 94.9737 38.3039 95.2593 38.4753C95.5448 38.658 95.7619 38.8979 95.8989 39.2177C96.3672 38.5552 97.0068 38.2126 97.8064 38.2126C98.3546 38.2126 98.8229 38.3839 99.1884 38.7151C99.5539 39.0463 99.7366 39.5032 99.7366 40.0857V44.2661H98.4346V40.6454C98.4346 40.2342 98.3546 39.903 98.2175 39.6631C98.0691 39.4347 97.7949 39.309 97.3838 39.309C96.9611 39.309 96.6413 39.4461 96.4243 39.7088C96.1959 39.9715 96.0931 40.337 96.0931 40.8053V44.2661H94.791V40.5769C94.791 40.1657 94.7225 39.8459 94.5968 39.6289C94.4712 39.4233 94.2085 39.309 93.8201 39.309C93.3747 39.309 93.0435 39.4575 92.815 39.7431C92.5866 40.0286 92.4724 40.4055 92.4724 40.8738V44.2661H91.1703V38.3725H92.4038ZM106.374 42.4272C106.226 43.0668 105.906 43.5694 105.426 43.9235C104.946 44.289 104.364 44.4603 103.701 44.4603C102.81 44.4603 102.102 44.1747 101.577 43.6036C101.051 43.0326 100.8 42.2901 100.8 41.3878C100.8 40.4741 101.063 39.7088 101.6 39.1035C102.137 38.5095 102.822 38.2011 103.656 38.2011C104.512 38.2011 105.198 38.4981 105.7 39.092C106.203 39.686 106.454 40.4855 106.454 41.502V41.6391H102.102C102.114 42.233 102.262 42.7013 102.548 43.0211C102.822 43.3409 103.222 43.5009 103.724 43.5009C104.078 43.5009 104.364 43.4209 104.592 43.2496C104.821 43.0782 104.992 42.8041 105.129 42.4272H106.374ZM105.152 40.771C105.106 40.2799 104.958 39.8916 104.684 39.606C104.41 39.3205 104.067 39.172 103.644 39.172C103.21 39.172 102.868 39.309 102.605 39.5832C102.342 39.8573 102.182 40.2571 102.125 40.771H105.152ZM108.689 38.3725V39.2405C109.157 38.5552 109.808 38.2126 110.642 38.2126C111.304 38.2126 111.807 38.3953 112.138 38.7608C112.469 39.1263 112.641 39.6517 112.641 40.337V44.2661H111.339V40.8396C111.339 40.6111 111.327 40.417 111.304 40.2571C111.282 40.0972 111.224 39.9372 111.156 39.7773C111.087 39.6174 110.973 39.5032 110.813 39.4233C110.653 39.3433 110.448 39.2976 110.197 39.2976C109.237 39.2976 108.757 39.903 108.757 41.0908V44.2661H107.455V38.3725H108.689ZM116.881 38.3725V39.3205H115.693V42.4272C115.693 42.61 115.693 42.747 115.704 42.8155C115.704 42.8841 115.727 42.964 115.773 43.0554C115.807 43.1468 115.876 43.2039 115.967 43.2267C116.058 43.261 116.195 43.2724 116.367 43.2724C116.572 43.2724 116.744 43.2724 116.881 43.2496V44.2775C116.618 44.3118 116.321 44.3232 116.001 44.3232C115.773 44.3232 115.567 44.3118 115.396 44.2775C115.225 44.2433 115.088 44.1976 114.973 44.1519C114.859 44.1062 114.756 44.0377 114.688 43.9235C114.608 43.8092 114.551 43.7179 114.505 43.6493C114.459 43.5808 114.437 43.4437 114.414 43.261C114.391 43.0782 114.391 42.9412 114.391 42.8498V42.3472V42.2787V42.2102V42.1302V39.3205H113.409V38.3725H114.391V36.6021H115.693V38.3725H116.881Z" fill="#959595"/>
<defs>
<clipPath id="clip0_182_314">
<rect width="46.5031" height="28.5545" fill="white"/>
</clipPath>
</defs>
</svg>
