<svg width="19" height="19" viewBox="0 0 19 19" fill="none" xmlns="http://www.w3.org/2000/svg">
  <g clip-path="url(#clip0_112_352)">
    <path fill-rule="evenodd" clip-rule="evenodd" d="M9.27874 0.641842C9.30834 0.542319 9.40007 0.473633 9.50412 0.473633C9.60816 0.473633 9.69989 0.542319 9.7295 0.641842C9.7295 0.641842 10.142 2.02454 10.5841 3.5076C11.2886 5.87037 13.1369 7.71863 15.4997 8.42314C16.9827 8.86526 18.3654 9.27777 18.3654 9.27777C18.4649 9.30737 18.5336 9.3991 18.5336 9.50315C18.5336 9.60719 18.4649 9.69892 18.3654 9.72852C18.3654 9.72852 16.9827 10.141 15.4997 10.5832C13.1369 11.2877 11.2886 13.1359 10.5841 15.4987C10.142 16.9817 9.7295 18.3644 9.7295 18.3644C9.69989 18.464 9.60816 18.5327 9.50412 18.5327C9.40007 18.5327 9.30834 18.464 9.27874 18.3644C9.27874 18.3644 8.86623 16.9817 8.42411 15.4987C7.7196 13.1359 5.87133 11.2877 3.50857 10.5832C2.02552 10.141 0.642819 9.72852 0.642819 9.72852C0.543289 9.69892 0.474609 9.60719 0.474609 9.50315C0.474609 9.3991 0.543289 9.30737 0.642819 9.27777C0.642819 9.27777 2.02552 8.86526 3.50857 8.42314C5.87133 7.71863 7.71961 5.87037 8.42411 3.5076C8.86623 2.02454 9.27874 0.641842 9.27874 0.641842Z" fill="#FFEB23"/>
  </g>
  <defs>
    <clipPath id="clip0_112_352">
      <rect width="19" height="19" fill="white"/>
    </clipPath>
  </defs>
</svg>
