<svg width="57" height="35" viewBox="0 0 57 35" fill="none" xmlns="http://www.w3.org/2000/svg">
  <g clip-path="url(#clip0_112_371)">
    <path d="M16.2339 33.3887C24.6021 33.3887 31.3858 26.533 31.3858 18.0762C31.3858 9.61931 24.6021 2.76367 16.2339 2.76367C7.86577 2.76367 1.08203 9.61931 1.08203 18.0762C1.08203 26.533 7.86577 33.3887 16.2339 33.3887Z" stroke="#88D100" stroke-width="2"/>
    <path d="M32.107 33.3887C40.4751 33.3887 47.2589 26.533 47.2589 18.0762C47.2589 9.61931 40.4751 2.76367 32.107 2.76367C23.7388 2.76367 16.9551 9.61931 16.9551 18.0762C16.9551 26.533 23.7388 33.3887 32.107 33.3887Z" stroke="#88D100" stroke-width="2"/>
    <path d="M54.0272 2.55937C54.1426 2.55937 54.2557 2.55694 54.3663 2.55208C54.4817 2.54236 54.5827 2.52049 54.6693 2.48646C54.7559 2.45243 54.8257 2.39896 54.8785 2.32604C54.9314 2.24827 54.9579 2.14375 54.9579 2.0125C54.9579 1.90069 54.9363 1.81077 54.893 1.74271C54.8545 1.67465 54.7992 1.62118 54.727 1.58229C54.6597 1.53854 54.5827 1.50937 54.4961 1.49479C54.4096 1.48021 54.3181 1.47291 54.222 1.47291H53.5221V2.55937H54.0272ZM53.5221 4.28021H53.1397V1.14479H54.3302C54.6814 1.14479 54.9363 1.22014 55.095 1.37083C55.2586 1.51666 55.3403 1.73056 55.3403 2.0125C55.3403 2.14861 55.3187 2.26771 55.2754 2.36979C55.2369 2.47187 55.1816 2.55937 55.1094 2.63229C55.0373 2.70035 54.9531 2.75625 54.8569 2.8C54.7655 2.83889 54.6669 2.86806 54.5611 2.8875L55.4846 4.28021H55.0373L54.1642 2.8875H53.5221V4.28021ZM54.1137 0.386458C53.7867 0.386458 53.4836 0.447222 53.2046 0.56875C52.9304 0.690278 52.6923 0.855558 52.4903 1.06458C52.2883 1.27361 52.1296 1.5191 52.0141 1.80104C51.9035 2.08299 51.8482 2.38681 51.8482 2.7125C51.8482 3.03819 51.9035 3.34202 52.0141 3.62396C52.1296 3.9059 52.2883 4.15139 52.4903 4.36041C52.6923 4.56944 52.9304 4.73472 53.2046 4.85625C53.4836 4.97778 53.7867 5.03854 54.1137 5.03854C54.436 5.03854 54.7342 4.97778 55.0084 4.85625C55.2874 4.73472 55.5279 4.56944 55.7299 4.36041C55.932 4.15139 56.0907 3.9059 56.2061 3.62396C56.3216 3.34202 56.3793 3.03819 56.3793 2.7125C56.3793 2.38681 56.3216 2.08299 56.2061 1.80104C56.0907 1.5191 55.932 1.27361 55.7299 1.06458C55.5279 0.855558 55.2874 0.690278 55.0084 0.56875C54.7342 0.447222 54.436 0.386458 54.1137 0.386458ZM54.1137 0C54.4938 0 54.8473 0.0704861 55.1744 0.211458C55.5014 0.347569 55.7853 0.539583 56.0258 0.787498C56.2662 1.03056 56.4538 1.31736 56.5885 1.64791C56.728 1.97847 56.7978 2.33333 56.7978 2.7125C56.7978 3.09653 56.728 3.45382 56.5885 3.78437C56.4538 4.11007 56.2662 4.39444 56.0258 4.6375C55.7853 4.88056 55.5014 5.07257 55.1744 5.21354C54.8473 5.34965 54.4938 5.41771 54.1137 5.41771C53.7337 5.41771 53.3802 5.34965 53.0531 5.21354C52.726 5.07257 52.4422 4.88056 52.2017 4.6375C51.9612 4.39444 51.7712 4.11007 51.6317 3.78437C51.497 3.45382 51.4297 3.09653 51.4297 2.7125C51.4297 2.33333 51.497 1.97847 51.6317 1.64791C51.7712 1.31736 51.9612 1.03056 52.2017 0.787498C52.4422 0.539583 52.726 0.347569 53.0531 0.211458C53.3802 0.0704861 53.7337 0 54.1137 0Z" fill="#484848"/>
  </g>
  <defs>
    <clipPath id="clip0_112_371">
      <rect width="57" height="35" fill="white"/>
    </clipPath>
  </defs>
</svg>
