<svg width="151" height="20" viewBox="0 0 151 20" fill="none" xmlns="http://www.w3.org/2000/svg">
<path d="M4.70884 2.904H0.000843756V-8.34465e-07H12.8708V2.904H8.16284V15.708H4.70884V2.904ZM12.3325 4.334H15.3025V6.446H15.3465C15.4932 6.094 15.6912 5.77133 15.9405 5.478C16.1899 5.17 16.4759 4.91333 16.7985 4.708C17.1212 4.488 17.4659 4.31933 17.8325 4.202C18.1992 4.08467 18.5805 4.026 18.9765 4.026C19.1819 4.026 19.4092 4.06267 19.6585 4.136V7.04C19.5119 7.01067 19.3359 6.98867 19.1305 6.974C18.9252 6.94467 18.7272 6.93 18.5365 6.93C17.9645 6.93 17.4805 7.02533 17.0845 7.216C16.6885 7.40667 16.3659 7.67067 16.1165 8.008C15.8819 8.33067 15.7132 8.712 15.6105 9.152C15.5079 9.592 15.4565 10.0687 15.4565 10.582V15.708H12.3325V4.334ZM31.5533 15.708H28.5833V14.124H28.5173C28.1213 14.784 27.608 15.2607 26.9773 15.554C26.3466 15.8473 25.7013 15.994 25.0413 15.994C24.2053 15.994 23.516 15.884 22.9733 15.664C22.4453 15.444 22.0273 15.136 21.7193 14.74C21.4113 14.3293 21.1913 13.838 21.0593 13.266C20.942 12.6793 20.8833 12.034 20.8833 11.33V4.334H24.0073V10.758C24.0073 11.6967 24.154 12.4007 24.4473 12.87C24.7406 13.3247 25.2613 13.552 26.0093 13.552C26.86 13.552 27.476 13.3027 27.8573 12.804C28.2386 12.2907 28.4293 11.4547 28.4293 10.296V4.334H31.5533V15.708ZM41.6683 8.338C41.463 7.03267 40.693 6.38 39.3583 6.38C38.8597 6.38 38.4417 6.49733 38.1043 6.732C37.767 6.952 37.4883 7.24533 37.2683 7.612C37.063 7.964 36.9163 8.36 36.8283 8.8C36.7403 9.22533 36.6963 9.65067 36.6963 10.076C36.6963 10.4867 36.7403 10.9047 36.8283 11.33C36.9163 11.7553 37.0557 12.144 37.2463 12.496C37.4517 12.8333 37.723 13.112 38.0603 13.332C38.3977 13.552 38.8083 13.662 39.2923 13.662C40.0403 13.662 40.6123 13.4567 41.0083 13.046C41.419 12.6207 41.6757 12.056 41.7783 11.352H44.7923C44.587 12.8627 44.0003 14.014 43.0323 14.806C42.0643 15.598 40.825 15.994 39.3143 15.994C38.4637 15.994 37.679 15.8547 36.9603 15.576C36.2563 15.2827 35.655 14.8793 35.1563 14.366C34.6577 13.8527 34.269 13.244 33.9903 12.54C33.7117 11.8213 33.5723 11.0367 33.5723 10.186C33.5723 9.306 33.697 8.492 33.9463 7.744C34.2103 6.98133 34.5917 6.32867 35.0903 5.786C35.589 5.22867 36.1977 4.796 36.9163 4.488C37.635 4.18 38.4563 4.026 39.3803 4.026C40.055 4.026 40.7003 4.114 41.3163 4.29C41.947 4.466 42.5043 4.73733 42.9883 5.104C43.487 5.456 43.8903 5.90333 44.1983 6.446C44.5063 6.974 44.6823 7.60467 44.7263 8.338H41.6683ZM46.8431 -8.34465e-07H49.9671V8.426L53.9051 4.334H57.6011L53.3111 8.514L58.0851 15.708H54.3011L51.1771 10.626L49.9671 11.792V15.708H46.8431V-8.34465e-07ZM62.974 12.804H66.054C66.5526 12.804 67.0366 12.7233 67.506 12.562C67.9753 12.4007 68.3933 12.1367 68.76 11.77C69.1266 11.3887 69.42 10.8973 69.64 10.296C69.86 9.69467 69.97 8.96133 69.97 8.096C69.97 7.304 69.8893 6.59267 69.728 5.962C69.5813 5.31667 69.332 4.76667 68.98 4.312C68.628 3.85733 68.1586 3.51267 67.572 3.278C67 3.02867 66.2886 2.904 65.438 2.904H62.974V12.804ZM59.52 -8.34465e-07H66.296C67.308 -8.34465e-07 68.2466 0.161333 69.112 0.483999C69.992 0.806666 70.7473 1.29067 71.378 1.936C72.0233 2.58133 72.522 3.388 72.874 4.356C73.2406 5.324 73.424 6.46067 73.424 7.766C73.424 8.91 73.2773 9.966 72.984 10.934C72.6906 11.902 72.2433 12.738 71.642 13.442C71.0553 14.146 70.3146 14.7033 69.42 15.114C68.54 15.51 67.4986 15.708 66.296 15.708H59.52V-8.34465e-07ZM78.7086 2.574H75.5846V-8.34465e-07H78.7086V2.574ZM75.5846 4.334H78.7086V15.708H75.5846V4.334ZM83.5885 12.012C83.5885 12.3493 83.6545 12.6427 83.7865 12.892C83.9331 13.1267 84.1165 13.3247 84.3365 13.486C84.5565 13.6327 84.8058 13.7427 85.0845 13.816C85.3778 13.8893 85.6785 13.926 85.9865 13.926C86.2065 13.926 86.4338 13.904 86.6685 13.86C86.9178 13.8013 87.1378 13.7207 87.3285 13.618C87.5338 13.5007 87.7025 13.354 87.8345 13.178C87.9665 12.9873 88.0325 12.7527 88.0325 12.474C88.0325 12.0047 87.7171 11.6527 87.0865 11.418C86.4705 11.1833 85.6051 10.9487 84.4905 10.714C84.0358 10.6113 83.5885 10.494 83.1485 10.362C82.7231 10.2153 82.3418 10.032 82.0045 9.812C81.6671 9.57733 81.3958 9.29133 81.1905 8.954C80.9851 8.602 80.8825 8.17667 80.8825 7.678C80.8825 6.94467 81.0218 6.34333 81.3005 5.874C81.5938 5.40467 81.9751 5.038 82.4445 4.774C82.9138 4.49533 83.4418 4.30467 84.0285 4.202C84.6151 4.08467 85.2165 4.026 85.8325 4.026C86.4485 4.026 87.0425 4.08467 87.6145 4.202C88.2011 4.31933 88.7218 4.51733 89.1765 4.796C89.6311 5.07467 90.0051 5.44867 90.2985 5.918C90.6065 6.37267 90.7898 6.952 90.8485 7.656H87.8785C87.8345 7.05467 87.6071 6.65133 87.1965 6.446C86.7858 6.226 86.3018 6.116 85.7445 6.116C85.5685 6.116 85.3778 6.13067 85.1725 6.16C84.9671 6.17467 84.7765 6.21867 84.6005 6.292C84.4391 6.36533 84.2998 6.47533 84.1825 6.622C84.0651 6.754 84.0065 6.93733 84.0065 7.172C84.0065 7.45067 84.1091 7.678 84.3145 7.854C84.5198 8.03 84.7838 8.17667 85.1065 8.294C85.4438 8.39667 85.8251 8.492 86.2505 8.58C86.6758 8.668 87.1085 8.76333 87.5485 8.866C88.0031 8.96867 88.4431 9.09333 88.8685 9.24C89.3085 9.38667 89.6971 9.58467 90.0345 9.834C90.3718 10.0687 90.6431 10.3693 90.8485 10.736C91.0538 11.088 91.1565 11.528 91.1565 12.056C91.1565 12.804 91.0025 13.4347 90.6945 13.948C90.4011 14.4467 90.0125 14.85 89.5285 15.158C89.0445 15.466 88.4871 15.6787 87.8565 15.796C87.2405 15.928 86.6098 15.994 85.9645 15.994C85.3045 15.994 84.6591 15.928 84.0285 15.796C83.3978 15.664 82.8331 15.444 82.3345 15.136C81.8505 14.828 81.4471 14.4247 81.1245 13.926C80.8165 13.4127 80.6478 12.7747 80.6185 12.012H83.5885ZM98.7269 13.662C99.2402 13.662 99.6655 13.5593 100.003 13.354C100.355 13.1487 100.634 12.8847 100.839 12.562C101.059 12.2247 101.213 11.836 101.301 11.396C101.389 10.956 101.433 10.5087 101.433 10.054C101.433 9.59933 101.382 9.152 101.279 8.712C101.191 8.272 101.037 7.88333 100.817 7.546C100.597 7.194 100.311 6.91533 99.9589 6.71C99.6215 6.49 99.2035 6.38 98.7049 6.38C98.1915 6.38 97.7589 6.49 97.4069 6.71C97.0695 6.91533 96.7909 7.18667 96.5709 7.524C96.3655 7.86133 96.2189 8.25 96.1309 8.69C96.0429 9.13 95.9989 9.58467 95.9989 10.054C95.9989 10.5087 96.0429 10.956 96.1309 11.396C96.2335 11.836 96.3875 12.2247 96.5929 12.562C96.8129 12.8847 97.0989 13.1487 97.4509 13.354C97.8029 13.5593 98.2282 13.662 98.7269 13.662ZM92.9849 4.334H95.9549V5.786H95.9989C96.3802 5.17 96.8642 4.72267 97.4509 4.444C98.0375 4.16533 98.6829 4.026 99.3869 4.026C100.282 4.026 101.052 4.19467 101.697 4.532C102.342 4.86933 102.878 5.31667 103.303 5.874C103.728 6.43133 104.044 7.084 104.249 7.832C104.454 8.56533 104.557 9.33533 104.557 10.142C104.557 10.9047 104.454 11.638 104.249 12.342C104.044 13.046 103.728 13.6693 103.303 14.212C102.892 14.7547 102.372 15.1873 101.741 15.51C101.125 15.8327 100.399 15.994 99.5629 15.994C98.8589 15.994 98.2062 15.8547 97.6049 15.576C97.0182 15.2827 96.5342 14.8573 96.1529 14.3H96.1089V19.69H92.9849V4.334ZM106.302 7.832C106.346 7.09867 106.529 6.49 106.852 6.006C107.175 5.522 107.585 5.13333 108.084 4.84C108.583 4.54667 109.14 4.34133 109.756 4.224C110.387 4.092 111.017 4.026 111.648 4.026C112.22 4.026 112.799 4.07 113.386 4.158C113.973 4.23133 114.508 4.38533 114.992 4.62C115.476 4.85467 115.872 5.18467 116.18 5.61C116.488 6.02067 116.642 6.57067 116.642 7.26V13.178C116.642 13.6913 116.671 14.1827 116.73 14.652C116.789 15.1213 116.891 15.4733 117.038 15.708H113.87C113.811 15.532 113.76 15.356 113.716 15.18C113.687 14.9893 113.665 14.7987 113.65 14.608C113.151 15.1213 112.565 15.4807 111.89 15.686C111.215 15.8913 110.526 15.994 109.822 15.994C109.279 15.994 108.773 15.928 108.304 15.796C107.835 15.664 107.424 15.4587 107.072 15.18C106.72 14.9013 106.441 14.5493 106.236 14.124C106.045 13.6987 105.95 13.1927 105.95 12.606C105.95 11.9607 106.06 11.4327 106.28 11.022C106.515 10.5967 106.808 10.2593 107.16 10.01C107.527 9.76067 107.937 9.57733 108.392 9.46C108.861 9.328 109.331 9.22533 109.8 9.152C110.269 9.07867 110.731 9.02 111.186 8.976C111.641 8.932 112.044 8.866 112.396 8.778C112.748 8.69 113.027 8.56533 113.232 8.404C113.437 8.228 113.533 7.97867 113.518 7.656C113.518 7.31867 113.459 7.05467 113.342 6.864C113.239 6.65867 113.093 6.50467 112.902 6.402C112.726 6.28467 112.513 6.21133 112.264 6.182C112.029 6.138 111.773 6.116 111.494 6.116C110.878 6.116 110.394 6.248 110.042 6.512C109.69 6.776 109.485 7.216 109.426 7.832H106.302ZM113.518 10.142C113.386 10.2593 113.217 10.3547 113.012 10.428C112.821 10.4867 112.609 10.538 112.374 10.582C112.154 10.626 111.919 10.6627 111.67 10.692C111.421 10.7213 111.171 10.758 110.922 10.802C110.687 10.846 110.453 10.9047 110.218 10.978C109.998 11.0513 109.8 11.154 109.624 11.286C109.463 11.4033 109.331 11.5573 109.228 11.748C109.125 11.9387 109.074 12.1807 109.074 12.474C109.074 12.7527 109.125 12.9873 109.228 13.178C109.331 13.3687 109.47 13.5227 109.646 13.64C109.822 13.7427 110.027 13.816 110.262 13.86C110.497 13.904 110.739 13.926 110.988 13.926C111.604 13.926 112.081 13.8233 112.418 13.618C112.755 13.4127 113.005 13.1707 113.166 12.892C113.327 12.5987 113.423 12.3053 113.452 12.012C113.496 11.7187 113.518 11.484 113.518 11.308V10.142ZM123.027 4.334H125.315V6.424H123.027V12.056C123.027 12.584 123.115 12.936 123.291 13.112C123.467 13.288 123.819 13.376 124.347 13.376C124.523 13.376 124.692 13.3687 124.853 13.354C125.014 13.3393 125.168 13.3173 125.315 13.288V15.708C125.051 15.752 124.758 15.7813 124.435 15.796C124.112 15.8107 123.797 15.818 123.489 15.818C123.005 15.818 122.543 15.7813 122.103 15.708C121.678 15.6493 121.296 15.5247 120.959 15.334C120.636 15.1433 120.38 14.872 120.189 14.52C119.998 14.168 119.903 13.706 119.903 13.134V6.424H118.011V4.334H119.903V0.923999H123.027V4.334ZM134.545 8.338C134.34 7.03267 133.57 6.38 132.235 6.38C131.737 6.38 131.319 6.49733 130.981 6.732C130.644 6.952 130.365 7.24533 130.145 7.612C129.94 7.964 129.793 8.36 129.705 8.8C129.617 9.22533 129.573 9.65067 129.573 10.076C129.573 10.4867 129.617 10.9047 129.705 11.33C129.793 11.7553 129.933 12.144 130.123 12.496C130.329 12.8333 130.6 13.112 130.937 13.332C131.275 13.552 131.685 13.662 132.169 13.662C132.917 13.662 133.489 13.4567 133.885 13.046C134.296 12.6207 134.553 12.056 134.655 11.352H137.669C137.464 12.8627 136.877 14.014 135.909 14.806C134.941 15.598 133.702 15.994 132.191 15.994C131.341 15.994 130.556 15.8547 129.837 15.576C129.133 15.2827 128.532 14.8793 128.033 14.366C127.535 13.8527 127.146 13.244 126.867 12.54C126.589 11.8213 126.449 11.0367 126.449 10.186C126.449 9.306 126.574 8.492 126.823 7.744C127.087 6.98133 127.469 6.32867 127.967 5.786C128.466 5.22867 129.075 4.796 129.793 4.488C130.512 4.18 131.333 4.026 132.257 4.026C132.932 4.026 133.577 4.114 134.193 4.29C134.824 4.466 135.381 4.73733 135.865 5.104C136.364 5.456 136.767 5.90333 137.075 6.446C137.383 6.974 137.559 7.60467 137.603 8.338H134.545ZM139.434 -8.34465e-07H142.558V5.918H142.624C143.02 5.258 143.526 4.78133 144.142 4.488C144.758 4.18 145.359 4.026 145.946 4.026C146.782 4.026 147.464 4.14333 147.992 4.378C148.535 4.598 148.96 4.91333 149.268 5.324C149.576 5.72 149.789 6.21133 149.906 6.798C150.038 7.37 150.104 8.008 150.104 8.712V15.708H146.98V9.284C146.98 8.34533 146.833 7.64867 146.54 7.194C146.247 6.72467 145.726 6.49 144.978 6.49C144.127 6.49 143.511 6.74667 143.13 7.26C142.749 7.75867 142.558 8.58733 142.558 9.746V15.708H139.434V-8.34465e-07Z" fill="white"/>
</svg>
