<svg width="67" height="67" viewBox="0 0 67 67" fill="none" xmlns="http://www.w3.org/2000/svg">
<circle cx="33.5" cy="33.5" r="33.5" fill="#FFEB23"/>
<path d="M33.5008 30.1338L38.4986 28.1373L26.1236 23.1873L21.8567 24.8934C21.6415 24.9792 21.4393 25.0947 21.2561 25.2366L33.5008 30.1338ZM20.3585 26.6573C20.32 26.8323 20.3007 27.011 20.3008 27.1902V39.8061C20.3007 40.3009 20.4489 40.7843 20.7262 41.194C21.0036 41.6037 21.3974 41.9209 21.8567 42.1046L31.3558 45.9045C31.7859 46.0761 32.2259 46.1938 32.6758 46.2576V31.5825L20.3585 26.6573ZM34.3258 46.2593C34.7782 46.1942 35.2213 46.0757 35.6458 45.9062L45.1448 42.1062C45.6045 41.9224 45.9984 41.605 46.2758 41.195C46.5532 40.785 46.7012 40.3012 46.7008 39.8061V27.1902C46.7008 27.0076 46.6815 26.8294 46.643 26.6556L34.3258 31.5825V46.2593ZM45.7454 25.2383L40.7195 27.2496L28.3445 22.2996L31.3558 21.0918C32.7327 20.541 34.2688 20.541 35.6458 21.0918L45.1448 24.8918C45.3601 24.9775 45.5623 25.093 45.7454 25.235" fill="#506270"/>
</svg>
