<svg width="67" height="67" viewBox="0 0 67 67" fill="none" xmlns="http://www.w3.org/2000/svg">
<circle cx="33.5" cy="33.5" r="33.5" fill="#FFEB23"/>
<path d="M43.125 21.125H23.875C22.3625 21.125 21.125 22.3625 21.125 23.875V43.125C21.125 44.6375 22.3625 45.875 23.875 45.875H43.125C44.6375 45.875 45.875 44.6375 45.875 43.125V23.875C45.875 22.3625 44.6375 21.125 43.125 21.125ZM29.375 40.375H26.625V32.125C26.625 31.3656 27.2406 30.75 28 30.75C28.7594 30.75 29.375 31.3656 29.375 32.125V40.375ZM34.875 40.375H32.125V28C32.125 27.2406 32.7406 26.625 33.5 26.625C34.2594 26.625 34.875 27.2406 34.875 28V40.375ZM40.375 40.375H37.625V36.25C37.625 35.4906 38.2406 34.875 39 34.875C39.7594 34.875 40.375 35.4906 40.375 36.25V40.375Z" fill="#506270"/>
</svg>
