<svg width="67" height="67" viewBox="0 0 67 67" fill="none" xmlns="http://www.w3.org/2000/svg">
<circle cx="33.5" cy="33.5" r="33.5" fill="#FFEB23"/>
<path d="M34.9288 21.9252C34.1045 21.495 32.9723 21.4886 32.1422 21.9172C28.5966 23.7484 25.3837 25.8464 22.5705 28.171C22.1953 28.481 21.9471 28.9148 21.9513 29.4107C21.9556 29.9049 22.2095 30.3339 22.5834 30.6397C25.3739 32.9214 28.5905 35.0219 32.0716 36.8388C32.8959 37.269 34.0282 37.2754 34.8582 36.8468C38.4038 35.0156 41.6168 32.9176 44.43 30.593C44.8051 30.283 45.0534 29.8492 45.0491 29.3533C45.0449 28.8591 44.791 28.4301 44.4171 28.1243C41.6265 25.8426 38.41 23.7421 34.9288 21.9252Z" fill="#506270"/>
<path d="M45.8175 35.8808C46.3006 35.5792 46.4478 34.943 46.1461 34.4599C45.8445 33.9768 45.2084 33.8297 44.7252 34.1313L36.3278 39.374C35.5798 39.841 34.5635 40.1014 33.5 40.1015C32.4365 40.1015 31.4201 39.8413 30.6719 39.3743L22.3664 34.1909C21.8833 33.8894 21.2471 34.0366 20.9456 34.5198C20.6441 35.0029 20.7913 35.6391 21.2745 35.9406L29.5799 41.124C30.7196 41.8353 32.1334 42.164 33.5001 42.164C34.8668 42.1639 36.2805 41.835 37.4201 41.1235L45.8175 35.8808Z" fill="#506270"/>
<path d="M45.8176 41.0435C46.3007 40.7418 46.4478 40.1056 46.1461 39.6225C45.8444 39.1395 45.2082 38.9924 44.7251 39.2941L37.4529 43.8355C36.3902 44.4992 34.9687 44.8579 33.4999 44.858C32.0312 44.858 30.6095 44.4995 29.5466 43.836L22.3665 39.3537C21.8834 39.0521 21.2473 39.1993 20.9457 39.6824C20.6441 40.1655 20.7912 40.8017 21.2744 41.1033L28.4544 45.5855C29.9089 46.4935 31.7281 46.9206 33.5 46.9205C35.272 46.9204 37.0911 46.4931 38.5454 45.5849L45.8176 41.0435Z" fill="#506270"/>
</svg>
