<svg width="67" height="67" viewBox="0 0 67 67" fill="none" xmlns="http://www.w3.org/2000/svg">
<circle cx="33.5" cy="33.5" r="33.5" fill="#FFEB23"/>
<path d="M33.5 47.25C31.0708 47.25 29.0885 46.8664 27.5531 46.0991C26.0177 45.3319 25.25 44.3405 25.25 43.125C25.25 42.6896 25.3476 42.2885 25.5429 41.9219C25.7381 41.5552 26.0301 41.2115 26.4187 40.8906C26.7396 40.6615 27.0893 40.5698 27.4679 40.6156C27.8465 40.6615 28.1499 40.8448 28.3781 41.1656C28.6064 41.4865 28.6925 41.8362 28.6366 42.2148C28.5807 42.5933 28.3914 42.8968 28.0688 43.125C28.3667 43.4917 29.0542 43.8125 30.1313 44.0875C31.2083 44.3625 32.3313 44.5 33.5 44.5C34.6687 44.5 35.7917 44.3625 36.8687 44.0875C37.9458 43.8125 38.6333 43.4917 38.9312 43.125C38.6104 42.8958 38.4211 42.592 38.3634 42.2134C38.3056 41.8348 38.3918 41.4855 38.6219 41.1656C38.852 40.8457 39.1558 40.6624 39.5335 40.6156C39.9112 40.5689 40.2604 40.6605 40.5812 40.8906C40.9708 41.2115 41.2633 41.5552 41.4585 41.9219C41.6537 42.2885 41.7509 42.6896 41.75 43.125C41.75 44.3396 40.9823 45.331 39.4469 46.0991C37.9115 46.8673 35.9292 47.2509 33.5 47.25ZM32.675 42.3344C32.4 42.2427 32.1479 42.1052 31.9188 41.9219C29.2146 39.7677 27.1979 37.6653 25.8687 35.6148C24.5396 33.5642 23.875 31.553 23.875 29.5813C23.875 27.9542 24.1674 26.5274 24.7523 25.3009C25.3371 24.0744 26.0874 23.0491 27.0031 22.225C27.9189 21.4009 28.9501 20.7822 30.0969 20.3688C31.2436 19.9553 32.378 19.7491 33.5 19.75C34.622 19.7509 35.7564 19.9572 36.9031 20.3688C38.0499 20.7803 39.0811 21.3991 39.9969 22.225C40.9126 23.0509 41.6634 24.0767 42.2491 25.3023C42.8349 26.5278 43.1268 27.9542 43.125 29.5813C43.125 31.5521 42.4604 33.5633 41.1312 35.6148C39.8021 37.6663 37.7854 39.7686 35.0812 41.9219C34.8521 42.1052 34.6 42.2427 34.325 42.3344C34.05 42.426 33.775 42.4719 33.5 42.4719C33.225 42.4719 32.95 42.426 32.675 42.3344ZM33.5 32.125C34.2563 32.125 34.9039 31.856 35.4429 31.3179C35.9819 30.7798 36.2509 30.1322 36.25 29.375C36.2491 28.6178 35.98 27.9707 35.4429 27.4335C34.9057 26.8963 34.2581 26.6268 33.5 26.625C32.7419 26.6232 32.0948 26.8927 31.5585 27.4335C31.0223 27.9743 30.7527 28.6215 30.75 29.375C30.7473 30.1285 31.0168 30.7761 31.5585 31.3179C32.1003 31.8596 32.7474 32.1287 33.5 32.125Z" fill="#506270"/>
</svg>
