<svg width="67" height="67" viewBox="0 0 67 67" fill="none" xmlns="http://www.w3.org/2000/svg">
<circle cx="33.5" cy="33.5" r="33.5" fill="#FFEB23"/>
<path d="M22.8925 28.4726C21.2805 28.9052 20.0938 30.3765 20.0938 32.125V36.25C20.0938 38.3383 21.7867 40.0312 23.875 40.0312H27.3125C27.882 40.0312 28.3438 39.5695 28.3438 39V29.375C28.3438 28.8055 27.882 28.3438 27.3125 28.3438H24.9954C25.5855 24.9475 29.0431 22.1562 33.5 22.1562C37.9569 22.1562 41.4145 24.9475 42.0046 28.3438H39.6875C39.118 28.3438 38.6562 28.8055 38.6562 29.375V39C38.6562 39.5695 39.118 40.0312 39.6875 40.0312H41.9742C41.5086 42.0021 39.7381 43.4688 37.625 43.4688H36.0501C35.6421 42.4609 34.6541 41.75 33.5 41.75C31.9812 41.75 30.75 42.9812 30.75 44.5C30.75 46.0188 31.9812 47.25 33.5 47.25C34.6541 47.25 35.6421 46.5391 36.0501 45.5312H37.625C40.9247 45.5312 43.6529 43.0843 44.0939 39.906C45.7128 39.4781 46.9062 38.0034 46.9062 36.25V32.125C46.9062 30.3765 45.7195 28.9052 44.1075 28.4726C43.583 23.6544 38.8985 20.0938 33.5 20.0938C28.1015 20.0938 23.417 23.6544 22.8925 28.4726Z" fill="#506270"/>
</svg>
