<svg width="67" height="67" viewBox="0 0 67 67" fill="none" xmlns="http://www.w3.org/2000/svg">
<circle cx="33.5" cy="33.5" r="33.5" fill="#FFEB23"/>
<path d="M23.8759 30.5581C26.511 36.2972 31.1997 40.8601 37.0291 43.3338L37.9635 43.7501C40.1014 44.7026 42.6146 43.979 43.9185 42.0354L45.1396 40.2153C45.5367 39.6235 45.4158 38.8265 44.8612 38.3791L40.7199 35.0381C40.1116 34.5474 39.2171 34.6617 38.7518 35.2896L37.4707 37.0183C34.1833 35.3967 31.5144 32.7278 29.8928 29.4404L31.6215 28.1593C32.2494 27.694 32.3637 26.7995 31.873 26.1912L28.5319 22.0498C28.0846 21.4953 27.2877 21.3743 26.696 21.7711L24.8633 23C22.9076 24.3113 22.188 26.8452 23.1625 28.9888L23.8748 30.5557L23.8759 30.5581Z" fill="#506270"/>
</svg>
