<svg width="67" height="67" viewBox="0 0 67 67" fill="none" xmlns="http://www.w3.org/2000/svg">
<circle cx="33.5" cy="33.5" r="33.5" fill="#FFEB23"/>
<path fill-rule="evenodd" clip-rule="evenodd" d="M26.9689 24.5094V26.4627L24.6397 26.6507C22.9929 26.7836 21.6496 28.0235 21.3855 29.6545C21.3281 30.0089 21.2759 30.364 21.2289 30.7196C21.2055 30.896 21.2996 31.0668 21.4605 31.143L21.5665 31.1932C29.0309 34.7276 37.9693 34.7276 45.4338 31.1932L45.5397 31.143C45.7006 31.0668 45.7947 30.896 45.7714 30.7196C45.7244 30.364 45.6722 30.0089 45.6148 29.6545C45.3507 28.0235 44.0073 26.7836 42.3605 26.6507L40.0314 26.4627V24.5094C40.0314 23.3183 39.16 22.3064 37.9821 22.1297L36.3047 21.8781C34.4454 21.5992 32.5549 21.5992 30.6956 21.8781L29.0182 22.1297C27.8403 22.3064 26.9689 23.3183 26.9689 24.5094ZM35.9987 23.9178C34.3423 23.6693 32.658 23.6693 31.0015 23.9178L29.3241 24.1694C29.1559 24.1946 29.0314 24.3392 29.0314 24.5094V26.3175C32.0081 26.147 34.9922 26.147 37.9689 26.3175V24.5094C37.9689 24.3392 37.8444 24.1946 37.6761 24.1694L35.9987 23.9178Z" fill="#506270"/>
<path d="M46.0378 33.5977C46.0275 33.405 45.8259 33.2847 45.6494 33.3628C37.9894 36.7544 29.0108 36.7544 21.3508 33.3628C21.1744 33.2846 20.9727 33.405 20.9624 33.5976C20.8225 36.2259 20.9635 38.8654 21.3855 41.471C21.6496 43.1019 22.9929 44.3418 24.6397 44.4747L27.2136 44.6825C31.3978 45.0202 35.6024 45.0202 39.7866 44.6825L42.3605 44.4747C44.0073 44.3418 45.3507 43.1019 45.6148 41.471C46.0367 38.8654 46.1777 36.2259 46.0378 33.5977Z" fill="#506270"/>
</svg>
