<svg width="27" height="27" viewBox="0 0 27 27" fill="none" xmlns="http://www.w3.org/2000/svg">
  <g clip-path="url(#clip0_112_150)">
    <path d="M25.5144 1.48522C24.5246 0.495134 23.332 0 21.9376 0H5.06247C3.66807 0 2.47548 0.495134 1.48522 1.48522C0.495134 2.47548 0 3.668 0 5.06247V21.9374C0 23.3318 0.495134 24.5244 1.48522 25.5147C2.47548 26.5049 3.66807 27.0001 5.06247 27.0001H21.9374C23.3318 27.0001 24.5244 26.5049 25.5142 25.5147C26.5045 24.5244 26.9996 23.3318 26.9996 21.9374V5.06247C26.9996 3.668 26.5044 2.4753 25.5144 1.48522ZM22.1127 20.4946C21.8666 21.0335 21.3129 21.5025 20.4518 21.9011C19.5904 22.2998 18.8256 22.4991 18.1574 22.4991C17.9699 22.4991 17.7706 22.4846 17.5597 22.4553C17.3488 22.4258 17.1703 22.3967 17.0239 22.3674C16.8775 22.3381 16.6838 22.2855 16.4438 22.2092C16.2034 22.1332 16.0304 22.0744 15.9253 22.0335C15.8195 21.9926 15.6263 21.9193 15.3453 21.8139C15.064 21.7081 14.888 21.6437 14.8181 21.6207C12.8963 20.9172 11.0181 19.6488 9.18417 17.8149C7.35029 15.9806 6.08167 14.1028 5.3785 12.1813C5.35523 12.1109 5.29076 11.9351 5.18517 11.6539C5.07977 11.3729 5.00632 11.1794 4.96531 11.074C4.92456 10.9686 4.86588 10.7957 4.78966 10.5556C4.7135 10.3153 4.66092 10.1221 4.63155 9.97545C4.60212 9.82916 4.57306 9.65055 4.54369 9.43956C4.51439 9.22856 4.49979 9.02908 4.49979 8.84173C4.49979 8.17371 4.69909 7.40909 5.09762 6.54775C5.4961 5.68653 5.96476 5.13284 6.50391 4.88669C7.12501 4.62878 7.71681 4.49986 8.27936 4.49986C8.4081 4.49986 8.50199 4.51168 8.56042 4.53507C8.6191 4.55878 8.71582 4.664 8.85065 4.85154C8.98549 5.03907 9.1319 5.2763 9.29007 5.56345C9.4483 5.85067 9.60358 6.12902 9.7559 6.39844C9.90822 6.66793 10.0547 6.9344 10.1954 7.19828C10.3361 7.46173 10.4239 7.62895 10.459 7.69902C10.4942 7.75794 10.5704 7.86907 10.6875 8.03327C10.8046 8.19723 10.8927 8.34352 10.9512 8.47256C11.0097 8.60149 11.039 8.72456 11.039 8.84173C11.039 9.01775 10.9188 9.23152 10.6786 9.48327C10.4383 9.73527 10.1746 9.96683 9.88747 10.1778C9.60031 10.3888 9.33674 10.6145 9.0965 10.8547C8.85644 11.0948 8.7362 11.291 8.7362 11.4434C8.7362 11.5255 8.7567 11.6221 8.79777 11.7334C8.83877 11.845 8.87688 11.9358 8.91204 12.006C8.94719 12.0762 9.00297 12.1759 9.07901 12.305C9.15517 12.434 9.2051 12.516 9.22838 12.5512C9.87282 13.7113 10.6142 14.7104 11.4519 15.5484C12.2899 16.3865 13.2888 17.1275 14.4491 17.7721C14.484 17.7957 14.5662 17.8454 14.6957 17.9217C14.8244 17.9975 14.9243 18.0532 14.9945 18.0883C15.0648 18.1235 15.1554 18.1617 15.2669 18.2024C15.3784 18.2432 15.4751 18.2639 15.5574 18.2639C15.7444 18.2639 16.0023 18.0707 16.3307 17.684C16.6588 17.297 16.993 16.9133 17.3328 16.5324C17.6724 16.1518 17.9476 15.9614 18.1589 15.9614C18.2761 15.9614 18.3989 15.9905 18.5283 16.0491C18.6573 16.1076 18.8034 16.1957 18.9674 16.3128C19.1317 16.4304 19.243 16.5063 19.3016 16.5419L20.2328 17.0511C20.854 17.3794 21.3725 17.6694 21.7887 17.9214C22.2048 18.1734 22.4304 18.3461 22.4657 18.4397C22.489 18.4983 22.5004 18.5923 22.5004 18.7212C22.5 19.2832 22.371 19.875 22.1127 20.4946Z" fill="#FFEB23"/>
  </g>
  <defs>
    <clipPath id="clip0_112_150">
      <rect width="27" height="27" fill="white"/>
    </clipPath>
  </defs>
</svg>
