<svg width="54" height="54" viewBox="0 0 54 54" fill="none" xmlns="http://www.w3.org/2000/svg">
  <circle cx="26" cy="26.5" r="17.5" fill="black"/>
  <path fill-rule="evenodd" clip-rule="evenodd" d="M21.8447 1.85811C23.2519 0.658756 25.0404 0 26.8893 0C28.7383 0 30.5267 0.658756 31.9339 1.85811L35.2287 4.66816C35.6445 5.02271 36.1616 5.23683 36.7063 5.27994L41.0225 5.62471C42.8647 5.77221 44.5941 6.57092 45.9009 7.8777C47.2077 9.18449 48.0064 10.9139 48.1539 12.7561L48.4987 17.0749C48.5423 17.6187 48.7564 18.1348 49.1105 18.5499L51.9205 21.8447C53.1199 23.2519 53.7786 25.0404 53.7786 26.8893C53.7786 28.7383 53.1199 30.5267 51.9205 31.9339L49.1105 35.2287C48.7559 35.6445 48.5418 36.1616 48.4987 36.7063L48.1539 41.0225C48.0064 42.8647 47.2077 44.5941 45.9009 45.9009C44.5941 47.2077 42.8647 48.0064 41.0225 48.1539L36.7037 48.4987C36.1599 48.5423 35.6438 48.7564 35.2287 49.1105L31.9339 51.9205C30.5267 53.1199 28.7383 53.7786 26.8893 53.7786C25.0404 53.7786 23.2519 53.1199 21.8447 51.9205L18.5499 49.1105C18.1341 48.7559 17.617 48.5418 17.0723 48.4987L12.7561 48.1539C10.9139 48.0064 9.18449 47.2077 7.8777 45.9009C6.57092 44.5941 5.77221 42.8647 5.62471 41.0225L5.27994 36.7037C5.2363 36.1599 5.02221 35.6438 4.66816 35.2287L1.85811 31.9339C0.658756 30.5267 0 28.7383 0 26.8893C0 25.0404 0.658756 23.2519 1.85811 21.8447L4.66816 18.5499C5.02271 18.1341 5.23683 17.617 5.27994 17.0723L5.62471 12.7561C5.77221 10.9139 6.57092 9.18449 7.8777 7.8777C9.18449 6.57092 10.9139 5.77221 12.7561 5.62471L17.0749 5.27994C17.6187 5.2363 18.1348 5.02221 18.5499 4.66816L21.8447 1.85811ZM36.4989 23.5375C36.9711 23.0486 37.2324 22.3937 37.2265 21.714C37.2206 21.0344 36.948 20.3842 36.4674 19.9035C35.9867 19.4229 35.3365 19.1503 34.6569 19.1444C33.9772 19.1385 33.3223 19.3998 32.8334 19.872L24.297 28.4084L20.9452 25.0566C20.4563 24.5843 19.8014 24.3231 19.1218 24.329C18.4421 24.3349 17.7919 24.6075 17.3112 25.0881C16.8306 25.5688 16.558 26.2189 16.5521 26.8986C16.5462 27.5783 16.8075 28.2331 17.2797 28.7221L22.4643 33.9066C22.9504 34.3926 23.6096 34.6656 24.297 34.6656C24.9844 34.6656 25.6436 34.3926 26.1298 33.9066L36.4989 23.5375Z" fill="#FFEB23"/>
</svg>
