<svg width="16" height="16" viewBox="0 0 16 16" fill="none" xmlns="http://www.w3.org/2000/svg">
  <path d="M1.30213 15.5C0.968571 15.5 0.635009 15.3734 0.381578 15.1181C-0.127193 14.6094 -0.127193 13.7845 0.381578 13.2758L13.2757 0.38157C13.7848 -0.12719 14.6097 -0.12719 15.1184 0.38157C15.6272 0.890329 15.6272 1.71516 15.1184 2.22423L2.22396 15.1181C1.96703 15.3734 1.63379 15.5 1.30213 15.5Z" fill="#7B7B7B"/>
  <path d="M14.1961 15.5C13.8628 15.5 13.5293 15.3734 13.2758 15.1181L0.381812 2.22439C-0.127271 1.71558 -0.127271 0.890664 0.381812 0.381849C0.890577 -0.127283 1.71541 -0.127283 2.22418 0.381849L15.1182 13.2771C15.6273 13.7859 15.6273 14.6108 15.1182 15.1197C14.8632 15.3734 14.5296 15.5 14.1961 15.5Z" fill="#7B7B7B"/>
</svg>
